<mxfile host="app.diagrams.net" modified="2020-11-27T09:28:42.540Z" agent="5.0 (X11)" etag="VRBUwzUI2nEW4DckQBe4" version="13.10.4" type="github">
  <diagram id="MVB2uGm9Gc8Xv4nxzQJY" name="Page-1">
    <mxGraphModel dx="1872" dy="720" grid="1" gridSize="10" guides="1" tooltips="1" connect="1" arrows="1" fold="1" page="1" pageScale="1" pageWidth="850" pageHeight="1100" math="0" shadow="0">
      <root>
        <mxCell id="0" />
        <mxCell id="1" parent="0" />
        <mxCell id="VfXmUG05PWbbRCSFkKbh-1" value="" style="rounded=0;whiteSpace=wrap;html=1;" vertex="1" parent="1">
          <mxGeometry x="130" y="120" width="480" height="540" as="geometry" />
        </mxCell>
        <mxCell id="VfXmUG05PWbbRCSFkKbh-2" value="Customer" style="shape=umlActor;verticalLabelPosition=bottom;verticalAlign=top;html=1;outlineConnect=0;" vertex="1" parent="1">
          <mxGeometry x="10" y="310" width="30" height="60" as="geometry" />
        </mxCell>
        <mxCell id="VfXmUG05PWbbRCSFkKbh-3" value="" style="endArrow=none;html=1;entryX=0;entryY=0.5;entryDx=0;entryDy=0;" edge="1" parent="1" target="VfXmUG05PWbbRCSFkKbh-4">
          <mxGeometry width="50" height="50" relative="1" as="geometry">
            <mxPoint x="40" y="340" as="sourcePoint" />
            <mxPoint x="128" y="343" as="targetPoint" />
          </mxGeometry>
        </mxCell>
        <mxCell id="VfXmUG05PWbbRCSFkKbh-4" value="Login" style="ellipse;whiteSpace=wrap;html=1;" vertex="1" parent="1">
          <mxGeometry x="140" y="300" width="120" height="80" as="geometry" />
        </mxCell>
        <mxCell id="VfXmUG05PWbbRCSFkKbh-5" value="view availability status" style="ellipse;whiteSpace=wrap;html=1;" vertex="1" parent="1">
          <mxGeometry x="170" y="530" width="120" height="80" as="geometry" />
        </mxCell>
        <mxCell id="VfXmUG05PWbbRCSFkKbh-6" value="View venue" style="ellipse;whiteSpace=wrap;html=1;" vertex="1" parent="1">
          <mxGeometry x="470" y="390" width="120" height="80" as="geometry" />
        </mxCell>
        <mxCell id="VfXmUG05PWbbRCSFkKbh-7" value="View ratings" style="ellipse;whiteSpace=wrap;html=1;" vertex="1" parent="1">
          <mxGeometry x="450" y="250" width="120" height="80" as="geometry" />
        </mxCell>
        <mxCell id="VfXmUG05PWbbRCSFkKbh-8" value="New movie" style="ellipse;whiteSpace=wrap;html=1;" vertex="1" parent="1">
          <mxGeometry x="340" y="140" width="120" height="80" as="geometry" />
        </mxCell>
        <mxCell id="VfXmUG05PWbbRCSFkKbh-9" value="&amp;lt;&amp;lt;include&amp;gt;&amp;gt;" style="endArrow=open;endSize=12;dashed=1;html=1;exitX=0.825;exitY=0.95;exitDx=0;exitDy=0;exitPerimeter=0;" edge="1" parent="1" source="VfXmUG05PWbbRCSFkKbh-4" target="VfXmUG05PWbbRCSFkKbh-13">
          <mxGeometry width="160" relative="1" as="geometry">
            <mxPoint x="250" y="370" as="sourcePoint" />
            <mxPoint x="440" y="400" as="targetPoint" />
          </mxGeometry>
        </mxCell>
        <mxCell id="VfXmUG05PWbbRCSFkKbh-10" value="&amp;lt;&amp;lt;include&amp;gt;&amp;gt;" style="endArrow=open;endSize=12;dashed=1;html=1;entryX=0.5;entryY=0;entryDx=0;entryDy=0;exitX=0.567;exitY=1.063;exitDx=0;exitDy=0;exitPerimeter=0;" edge="1" parent="1" source="VfXmUG05PWbbRCSFkKbh-4" target="VfXmUG05PWbbRCSFkKbh-5">
          <mxGeometry width="160" relative="1" as="geometry">
            <mxPoint x="170" y="450" as="sourcePoint" />
            <mxPoint x="330" y="450" as="targetPoint" />
          </mxGeometry>
        </mxCell>
        <mxCell id="VfXmUG05PWbbRCSFkKbh-11" value="&amp;lt;&amp;lt;include&amp;gt;&amp;gt;" style="endArrow=open;endSize=12;dashed=1;html=1;entryX=0.042;entryY=0.738;entryDx=0;entryDy=0;entryPerimeter=0;" edge="1" parent="1" target="VfXmUG05PWbbRCSFkKbh-7">
          <mxGeometry width="160" relative="1" as="geometry">
            <mxPoint x="260" y="339.5" as="sourcePoint" />
            <mxPoint x="420" y="339.5" as="targetPoint" />
          </mxGeometry>
        </mxCell>
        <mxCell id="VfXmUG05PWbbRCSFkKbh-12" value="&amp;lt;&amp;lt;include&amp;gt;&amp;gt;" style="endArrow=open;endSize=12;dashed=1;html=1;entryX=0.058;entryY=0.713;entryDx=0;entryDy=0;entryPerimeter=0;exitX=1;exitY=0;exitDx=0;exitDy=0;" edge="1" parent="1" source="VfXmUG05PWbbRCSFkKbh-4" target="VfXmUG05PWbbRCSFkKbh-8">
          <mxGeometry width="160" relative="1" as="geometry">
            <mxPoint x="250" y="300" as="sourcePoint" />
            <mxPoint x="410" y="300" as="targetPoint" />
          </mxGeometry>
        </mxCell>
        <mxCell id="VfXmUG05PWbbRCSFkKbh-13" value="View timings" style="ellipse;whiteSpace=wrap;html=1;" vertex="1" parent="1">
          <mxGeometry x="350" y="500" width="120" height="80" as="geometry" />
        </mxCell>
        <mxCell id="VfXmUG05PWbbRCSFkKbh-14" value="&amp;lt;&amp;lt;include&amp;gt;&amp;gt;" style="endArrow=open;endSize=12;dashed=1;html=1;exitX=0.975;exitY=0.738;exitDx=0;exitDy=0;exitPerimeter=0;entryX=0;entryY=0.5;entryDx=0;entryDy=0;" edge="1" parent="1" source="VfXmUG05PWbbRCSFkKbh-4" target="VfXmUG05PWbbRCSFkKbh-6">
          <mxGeometry width="160" relative="1" as="geometry">
            <mxPoint x="277" y="360" as="sourcePoint" />
            <mxPoint x="413.75373629489286" y="491.1556301307746" as="targetPoint" />
          </mxGeometry>
        </mxCell>
        <mxCell id="VfXmUG05PWbbRCSFkKbh-15" value="Use case for &quot;view&quot; module" style="text;html=1;strokeColor=none;fillColor=none;align=center;verticalAlign=middle;whiteSpace=wrap;rounded=0;" vertex="1" parent="1">
          <mxGeometry x="230" y="80" width="250" height="20" as="geometry" />
        </mxCell>
      </root>
    </mxGraphModel>
  </diagram>
</mxfile>
